HIERARCHY
ROOT joint_Root
{
	OFFSET 0.0 0.0 0.0
	CHANNELS 6 Xposition Yposition Zposition Zrotation Xrotation Yrotation 
	JOINT Hips
	{
		OFFSET 4.5925 91.4895 -427.239
		CHANNELS 6 Xposition Yposition Zposition Zrotation Xrotation Yrotation 
		JOINT Spine
		{
			OFFSET 15.7357 0.0 0.0
			CHANNELS 6 Xposition Yposition Zposition Zrotation Xrotation Yrotation 
			JOINT Chest
			{
				OFFSET 8.98455 -0.406207 0.0
				CHANNELS 6 Xposition Yposition Zposition Zrotation Xrotation Yrotation 
				JOINT Neck
				{
					OFFSET 16.3773 0.0 0.0
					CHANNELS 6 Xposition Yposition Zposition Zrotation Xrotation Yrotation 
					JOINT Head
					{
						OFFSET 6.45672 0.0 0.0
						CHANNELS 6 Xposition Yposition Zposition Zrotation Xrotation Yrotation 
						End Site
						{
							OFFSET 0.0 0.0 0.0
						}
					}
				}
				JOINT Shoulder_L
				{
					OFFSET 12.9942 -0.242716 4.98039
					CHANNELS 6 Xposition Yposition Zposition Zrotation Xrotation Yrotation 
					JOINT UpperArm_L
					{
						OFFSET 5.34809 0.0 0.0
						CHANNELS 6 Xposition Yposition Zposition Zrotation Xrotation Yrotation 
						JOINT LowerArm_L
						{
							OFFSET 24.3286 1.87007e-05 0.0
							CHANNELS 6 Xposition Yposition Zposition Zrotation Xrotation Yrotation 
							JOINT Hand_L
							{
								OFFSET 22.2916 0.0 0.0
								CHANNELS 6 Xposition Yposition Zposition Zrotation Xrotation Yrotation 
								End Site
								{
									OFFSET 0.0 0.0 0.0
								}
							}
						}
					}
				}
				JOINT Shoulder_R
				{
					OFFSET 12.9945 -0.242716 -4.98039
					CHANNELS 6 Xposition Yposition Zposition Zrotation Xrotation Yrotation 
					JOINT UpperArm_R
					{
						OFFSET -5.34813 0.0 0.0
						CHANNELS 6 Xposition Yposition Zposition Zrotation Xrotation Yrotation 
						JOINT LowerArm_R
						{
							OFFSET -24.3289 0.000322201 0.0
							CHANNELS 6 Xposition Yposition Zposition Zrotation Xrotation Yrotation 
							JOINT Hand_R
							{
								OFFSET -22.2915 -0.000108084 0.0
								CHANNELS 6 Xposition Yposition Zposition Zrotation Xrotation Yrotation 
								End Site
								{
									OFFSET 0.0 0.0 0.0
								}
							}
						}
					}
				}
			}
		}
		JOINT UpperLeg_L
		{
			OFFSET -2.19248 -6.46944 0.0
			CHANNELS 6 Xposition Yposition Zposition Zrotation Xrotation Yrotation 
			JOINT LowerLeg_L
			{
				OFFSET 39.0811 0.0 -1.23785e-05
				CHANNELS 6 Xposition Yposition Zposition Zrotation Xrotation Yrotation 
				JOINT Foot_L
				{
					OFFSET 40.9854 0.0 -1.26872e-05
					CHANNELS 6 Xposition Yposition Zposition Zrotation Xrotation Yrotation 
					JOINT Toes_L
					{
						OFFSET 11.7543 0.0 0.0
						CHANNELS 6 Xposition Yposition Zposition Zrotation Xrotation Yrotation 
						End Site
						{
							OFFSET 0.0 0.0 0.0
						}
					}
				}
			}
		}
		JOINT UpperLeg_R
		{
			OFFSET -2.19251 6.46944 0.0
			CHANNELS 6 Xposition Yposition Zposition Zrotation Xrotation Yrotation 
			JOINT LowerLeg_R
			{
				OFFSET -39.0811 -0.00228153 -0.0401928
				CHANNELS 6 Xposition Yposition Zposition Zrotation Xrotation Yrotation 
				JOINT Foot_R
				{
					OFFSET -40.9854 0.0 0.0
					CHANNELS 6 Xposition Yposition Zposition Zrotation Xrotation Yrotation 
					JOINT Toes_R
					{
						OFFSET -11.7543 0.0 0.0
						CHANNELS 6 Xposition Yposition Zposition Zrotation Xrotation Yrotation 
						End Site
						{
							OFFSET 0.0 0.0 0.0
						}
					}
				}
			}
		}
	}
}
MOTION
Frames:	9
Frame Time:	0.0333333
0.000000 0.000000 0.000000 0.000000 0.000000 -0.000000 -3.187140 85.001000 -2.781850 86.679200 4.172130 7.501600 15.735700 0.000005 -0.000001 78.177600 82.693200 -78.488300 8.984550 -0.406207 -0.000000 6.536410 -2.981510 -0.450584 16.377300 -0.000001 -0.000001 -2.845000 -2.676400 0.418860 6.456720 -0.000001 -0.000000 -2.539520 -0.548938 0.518006 12.994200 -0.242716 4.980390 -91.188600 4.334650 -74.650100 5.348090 -0.000007 -0.000001 -66.649800 26.673200 -12.314100 24.328600 0.000019 0.000005 12.525300 22.834900 -29.790000 22.291600 -0.000001 0.000005 16.602000 5.254860 1.291190 12.994500 -0.242716 -4.980390 88.223800 9.460570 -79.316000 -5.348130 -0.000001 -0.000004 -60.858200 28.023400 -8.085280 -24.328900 0.000322 -0.000009 3.374370 5.797520 -30.273500 -22.291500 -0.000108 -0.000004 5.103280 5.342390 -1.130990 -2.192480 -6.469440 -0.000000 -170.676000 -7.875440 -17.861800 39.081100 -0.000007 -0.000012 -0.286593 0.200838 54.978900 40.985400 -0.000006 -0.000013 1.855630 11.143700 -80.217200 11.754300 -0.000000 0.000003 -0.000175 -0.001652 -16.640100 -2.192510 6.469440 -0.000001 -178.432000 16.922400 165.434000 -39.081100 -0.002282 -0.040193 0.070312 -0.050183 53.198400 -40.985400 0.000008 0.000006 8.986860 4.694680 -81.953500 -11.754300 -0.000006 -0.000006 -0.615055 -0.758180 -16.518800
0.000000 0.000000 0.000000 0.000000 0.000000 -0.000000 -3.497020 87.158900 -2.023010 86.395900 6.374510 7.685200 15.735700 0.000005 -0.000001 77.778100 83.263100 -78.881300 8.984550 -0.406207 -0.000000 5.381320 -2.822990 -2.071370 16.377300 -0.000001 -0.000001 -1.495580 -2.566680 0.281764 6.456720 -0.000001 -0.000000 -1.531030 -0.925224 2.252130 12.994200 -0.242716 4.980390 -90.968700 3.345280 -73.840800 5.348090 -0.000007 -0.000001 -69.579900 23.676900 -10.874400 24.328600 0.000019 0.000005 9.447000 20.130700 -25.801100 22.291600 -0.000001 0.000005 18.845200 5.078790 5.593950 12.994500 -0.242716 -4.980390 88.260000 8.397740 -78.249100 -5.348130 -0.000001 -0.000004 -58.024000 20.267900 -8.390350 -24.328900 0.000322 -0.000009 3.454380 4.836080 -35.621500 -22.291500 -0.000108 -0.000004 -0.364410 5.374640 -2.130730 -2.192480 -6.469440 -0.000000 -170.426000 -6.263610 -14.070600 39.081100 -0.000007 -0.000012 -0.210792 0.191106 47.804800 40.985400 -0.000006 -0.000013 1.212850 11.775100 -76.942700 11.754300 -0.000000 0.000003 -0.000119 -0.001192 -16.623100 -2.192510 6.469440 -0.000001 -178.344000 18.635000 169.955000 -39.081100 -0.002282 -0.040193 0.057154 -0.052617 45.685800 -40.985400 0.000008 0.000006 8.647740 4.894730 -78.387900 -11.754300 -0.000006 -0.000006 -0.656024 -0.806722 -16.989300
0.000000 0.000000 0.000000 0.000000 0.000000 -0.000000 -3.499070 89.451700 -1.595070 86.642500 7.118890 6.387300 15.735700 0.000005 -0.000001 77.437600 84.308700 -79.496000 8.984550 -0.406207 -0.000000 3.306850 -2.392870 -4.043680 16.377300 -0.000001 -0.000001 0.134459 -2.024300 0.385290 6.456720 -0.000001 -0.000000 -0.943932 -0.928745 3.614930 12.994200 -0.242716 4.980390 -90.831200 2.630270 -72.455500 5.348090 -0.000007 -0.000001 -70.397200 22.067600 -8.658040 24.328600 0.000019 0.000005 6.942340 15.682100 -24.250300 22.291600 -0.000001 0.000005 16.853600 5.078590 5.595310 12.994500 -0.242716 -4.980390 88.459100 6.822160 -77.240100 -5.348130 -0.000001 -0.000004 -49.517700 13.094200 -13.329600 -24.328900 0.000322 -0.000009 2.628990 2.738350 -43.877700 -22.291500 -0.000108 -0.000004 7.263490 5.436940 -4.149740 -2.192480 -6.469440 -0.000000 -170.949000 -6.285120 -10.670000 39.081100 -0.000007 -0.000012 -0.147381 0.183340 38.795000 40.985400 -0.000006 -0.000013 0.521696 12.152000 -72.607500 11.754300 -0.000000 0.000003 -0.000088 -0.000919 -16.612900 -2.192510 6.469440 -0.000001 -178.411000 19.356900 173.185000 -39.081100 -0.002282 -0.040193 0.037507 -0.045481 36.958900 -40.985400 0.000008 0.000006 8.043780 5.963250 -73.402500 -11.754300 -0.000006 -0.000006 -0.823928 -1.005990 -17.721000
0.000000 0.000000 0.000000 0.000000 0.000000 -0.000000 -3.098110 91.074400 -1.455460 87.112000 6.518700 4.998560 15.735700 0.000005 -0.000001 78.519400 85.274800 -81.280600 8.984550 -0.406207 -0.000000 1.460460 -1.728240 -5.495800 16.377300 -0.000001 -0.000001 1.511230 -1.405580 0.006865 6.456720 -0.000001 -0.000000 -0.603009 -0.796662 4.072000 12.994200 -0.242716 4.980390 -90.710700 2.054610 -70.914300 5.348090 -0.000007 -0.000001 -70.168200 21.638400 -5.443210 24.328600 0.000019 0.000005 8.121000 16.619100 -26.514300 22.291600 -0.000001 0.000005 11.623600 5.174290 3.345090 12.994500 -0.242716 -4.980390 88.966500 4.573420 -77.252700 -5.348130 -0.000001 -0.000004 -39.966000 -0.725927 -20.781000 -24.328900 0.000322 -0.000009 0.193603 0.159815 -50.970000 -22.291500 -0.000108 -0.000004 18.098800 5.519460 -7.293080 -2.192480 -6.469440 -0.000000 -171.850000 -7.390290 -7.783030 39.081100 -0.000007 -0.000012 -0.104180 0.173766 30.944600 40.985400 -0.000006 -0.000013 0.112773 12.225400 -68.823500 11.754300 -0.000000 0.000003 -0.000060 -0.000663 -16.603200 -2.192510 6.469440 -0.000001 -179.298000 21.605400 175.401000 -39.081100 -0.002282 -0.040193 0.024940 -0.037479 29.999800 -40.985400 0.000008 0.000006 7.887310 9.556650 -69.175200 -11.754300 -0.000006 -0.000006 -0.864507 -1.041760 -18.662500
0.000000 0.000000 0.000000 0.000000 0.000000 -0.000000 -2.611790 91.867800 -1.538520 87.466000 5.380970 3.792280 15.735700 0.000005 -0.000001 82.698000 85.903900 -85.779800 8.984550 -0.406207 -0.000000 0.344649 -0.841514 -6.156750 16.377300 -0.000001 -0.000001 1.792610 -0.769006 -0.696917 6.456720 -0.000001 -0.000000 -0.658314 -0.638804 3.517530 12.994200 -0.242716 4.980390 -90.895000 2.408150 -69.606000 5.348090 -0.000007 -0.000001 -68.157700 23.306400 -2.726160 24.328600 0.000019 0.000005 10.693300 18.661200 -30.546200 22.291600 -0.000001 0.000005 7.586720 5.236860 1.774810 12.994500 -0.242716 -4.980390 89.647100 1.737760 -78.524800 -5.348130 -0.000001 -0.000004 -31.294500 -19.093400 -28.905200 -24.328900 0.000322 -0.000009 -9.785620 -7.211750 -53.945800 -22.291500 -0.000108 -0.000004 28.630400 5.575840 -9.938610 -2.192480 -6.469440 -0.000000 -172.591000 -9.368680 -6.413510 39.081100 -0.000007 -0.000012 -0.079580 0.160674 26.348700 40.985400 -0.000006 -0.000013 0.158079 12.699400 -66.599900 11.754300 -0.000000 0.000003 -0.000061 -0.000669 -16.603400 -2.192510 6.469440 -0.000001 179.897000 23.841400 176.419000 -39.081100 -0.002282 -0.040193 0.017617 -0.029758 25.676000 -40.985400 0.000008 0.000006 7.677050 13.484900 -67.141900 -11.754300 -0.000006 -0.000006 -0.818138 -0.987001 -18.674000
0.000000 0.000000 0.000000 0.000000 0.000000 -0.000000 -2.380390 92.098800 -1.753300 87.856900 4.818400 3.097480 15.735700 0.000005 -0.000001 90.114200 86.000700 -93.523000 8.984550 -0.406207 -0.000000 0.248850 0.239301 -6.813480 16.377300 -0.000001 -0.000001 1.274470 -0.474062 -1.410370 6.456720 -0.000001 -0.000000 -1.464910 -0.795663 3.083050 12.994200 -0.242716 4.980390 -91.250000 3.218800 -68.763300 5.348090 -0.000007 -0.000001 -64.135400 26.751300 -1.853810 24.328600 0.000019 0.000005 12.310500 19.066100 -33.745100 22.291600 -0.000001 0.000005 6.642570 5.275050 0.761512 12.994500 -0.242716 -4.980390 90.418200 -2.407340 -80.134900 -5.348130 -0.000001 -0.000004 -28.941100 -41.214400 -37.386400 -24.328900 0.000322 -0.000009 -13.633700 -10.888200 -52.086100 -22.291500 -0.000108 -0.000004 30.301000 5.625680 -13.035900 -2.192480 -6.469440 -0.000000 -173.136000 -11.267700 -6.286150 39.081100 -0.000007 -0.000012 -0.059542 0.129128 24.755000 40.985400 -0.000006 -0.000013 0.416309 13.804600 -65.715400 11.754300 -0.000000 0.000003 -0.000057 -0.000638 -16.602300 -2.192510 6.469440 -0.000001 179.455000 24.770800 176.927000 -39.081100 -0.002282 -0.040193 0.012428 -0.021125 23.334500 -40.985400 0.000008 0.000006 7.673270 15.034400 -67.237500 -11.754300 -0.000006 -0.000006 -0.127916 -0.179699 -17.997400
0.000000 0.000000 0.000000 0.000000 0.000000 -0.000000 -2.335480 92.144200 -1.892390 88.374100 5.126810 3.438810 15.735700 0.000005 -0.000001 95.357800 85.544700 -99.255200 8.984550 -0.406207 -0.000000 1.153730 1.056180 -7.799060 16.377300 -0.000001 -0.000001 0.771691 -0.784083 -1.336370 6.456720 -0.000001 -0.000000 -2.887700 -0.910746 1.777760 12.994200 -0.242716 4.980390 -91.774900 4.461270 -68.278700 5.348090 -0.000007 -0.000001 -58.557500 29.119900 -2.085610 24.328600 0.000019 0.000005 13.315500 19.027400 -35.977600 22.291600 -0.000001 0.000005 7.799820 5.280040 0.625053 12.994500 -0.242716 -4.980390 91.364300 -7.985880 -80.273200 -5.348130 -0.000001 -0.000004 -36.707700 -59.658000 -52.579200 -24.328900 0.000322 -0.000009 -12.085200 -12.240000 -45.283300 -22.291500 -0.000108 -0.000004 31.662500 5.663210 -16.380600 -2.192480 -6.469440 -0.000000 -173.509000 -12.374200 -5.697450 39.081100 -0.000007 -0.000012 -0.048058 0.107220 24.142800 40.985400 -0.000006 -0.000013 0.684826 15.203000 -65.314700 11.754300 -0.000000 0.000003 -0.000064 -0.000698 -16.604500 -2.192510 6.469440 -0.000001 178.751000 24.854100 178.009000 -39.081100 -0.002282 -0.040193 0.009255 -0.014541 22.212300 -40.985400 0.000008 0.000006 7.783460 14.796400 -67.884100 -11.754300 -0.000006 -0.000006 -0.002089 -0.029831 -17.786100
0.000000 0.000000 0.000000 0.000000 0.000000 -0.000000 -2.533760 92.259900 -2.027310 88.532000 6.288020 3.314310 15.735700 0.000005 -0.000001 98.395500 85.204700 -102.717000 8.984550 -0.406207 -0.000000 1.798470 1.624010 -8.661130 16.377300 -0.000001 -0.000001 1.073130 -2.166570 -0.038091 6.456720 -0.000001 -0.000000 -4.429030 -1.004620 -0.352027 12.994200 -0.242716 4.980390 -92.105700 5.335760 -68.427000 5.348090 -0.000007 -0.000001 -54.233100 28.031200 -3.098090 24.328600 0.000019 0.000005 14.268800 20.616600 -35.839500 22.291600 -0.000001 0.000005 9.575250 5.273130 0.812552 12.994500 -0.242716 -4.980390 93.065200 -14.608700 -78.016300 -5.348130 -0.000001 -0.000004 -43.973500 -69.470700 -64.837900 -24.328900 0.000322 -0.000009 -11.108300 -14.694000 -37.736500 -22.291500 -0.000108 -0.000004 32.286000 5.663700 -16.484100 -2.192480 -6.469440 -0.000000 -173.562000 -12.615700 -5.680600 39.081100 -0.000007 -0.000012 -0.045739 0.106429 23.256000 40.985400 -0.000006 -0.000013 0.697136 16.532300 -64.624900 11.754300 -0.000000 0.000003 -0.000068 -0.000739 -16.606100 -2.192510 6.469440 -0.000001 178.812000 25.467100 178.491000 -39.081100 -0.002282 -0.040193 0.007445 -0.010726 21.038200 -40.985400 0.000008 0.000006 7.677860 14.240700 -67.624500 -11.754300 -0.000006 -0.000006 -0.002224 -0.031486 -17.853400
0.000000 0.000000 0.000000 0.000000 0.000000 -0.000000 -3.029590 92.511900 -1.943140 88.255300 8.053060 2.602610 15.735700 0.000005 -0.000001 98.340100 85.434500 -102.824000 8.984550 -0.406207 -0.000000 1.346350 1.574460 -8.979590 16.377300 -0.000001 -0.000001 3.046100 -3.233590 1.623600 6.456720 -0.000001 -0.000000 -6.207810 -1.046820 -1.865830 12.994200 -0.242716 4.980390 -92.198800 5.425630 -67.899700 5.348090 -0.000007 -0.000001 -53.782000 22.492000 -3.337120 24.328600 0.000019 0.000005 16.010400 24.868800 -34.307200 22.291600 -0.000001 0.000005 11.200000 5.221630 2.167690 12.994500 -0.242716 -4.980390 95.004900 -19.127400 -75.037500 -5.348130 -0.000001 -0.000004 -23.432400 -72.376100 -51.171300 -24.328900 0.000322 -0.000009 -7.229920 -13.934900 -27.771900 -22.291500 -0.000108 -0.000004 28.511500 5.651930 -15.175200 -2.192480 -6.469440 -0.000000 -173.092000 -12.693400 -5.854160 39.081100 -0.000007 -0.000012 -0.042112 0.107128 21.459700 40.985400 -0.000006 -0.000013 0.387313 18.367100 -63.481900 11.754300 -0.000000 0.000003 -0.000064 -0.000697 -16.604500 -2.192510 6.469440 -0.000001 179.607000 27.520100 178.749000 -39.081100 -0.002282 -0.040193 0.005654 -0.006710 19.157100 -40.985400 0.000008 0.000006 7.792750 14.613200 -66.452300 -11.754300 -0.000006 -0.000006 -0.002451 -0.034225 -17.964800
